<svg width="24" height="24" viewBox="0 0 24 24" xmlns="http://www.w3.org/2000/svg">
  <path d="M12 2.5C6.753 2.5 2.5 6.753 2.5 12S6.753 21.5 12 21.5 21.5 17.247 21.5 12 17.247 2.5 12 2.5zm0 1.75A7.75 7.75 0 0 1 19.75 12 7.75 7.75 0 0 1 12 19.75 7.75 7.75 0 0 1 4.25 12 7.75 7.75 0 0 1 12 4.25zm-3.1 5a1.1 1.1 0 1 0 0 2.2 1.1 1.1 0 0 0 0-2.2zm6.2 0a1.1 1.1 0 1 0 0 2.2 1.1 1.1 0 0 0 0-2.2zm-6.364 4.598a.875.875 0 0 0-.61 1.502A5.42 5.42 0 0 0 12 16.96a5.42 5.42 0 0 0 3.874-1.61.875.875 0 1 0-1.241-1.235A3.666 3.666 0 0 1 12 15.21a3.666 3.666 0 0 1-2.633-1.095.872.872 0 0 0-.631-.267z" fill="#000000"/>
</svg>
