<?xml version="1.0" encoding="UTF-8" standalone="no"?>
<svg
   height="512"
   viewBox="0 0 512 512"
   width="512"
   version="1.1"
   id="svg23772"
   sodipodi:docname="logo_inkscape.svg"
   inkscape:version="1.4.4 (dcaf3e7, 2026-05-05)"
   inkscape:export-filename="disports.png"
   inkscape:export-xdpi="300"
   inkscape:export-ydpi="300"
   xmlns:inkscape="http://www.inkscape.org/namespaces/inkscape"
   xmlns:sodipodi="http://sodipodi.sourceforge.net/DTD/sodipodi-0.dtd"
   xmlns="http://www.w3.org/2000/svg"
   xmlns:svg="http://www.w3.org/2000/svg">
  <sodipodi:namedview
     id="namedview23774"
     pagecolor="#ffffff"
     bordercolor="#000000"
     borderopacity="0.25"
     inkscape:showpageshadow="2"
     inkscape:pageopacity="0.0"
     inkscape:pagecheckerboard="0"
     inkscape:deskcolor="#d1d1d1"
     showgrid="false"
     showguides="true"
     inkscape:zoom="0.70710678"
     inkscape:cx="521.8448"
     inkscape:cy="403.75797"
     inkscape:window-width="1368"
     inkscape:window-height="850"
     inkscape:window-x="-6"
     inkscape:window-y="-6"
     inkscape:window-maximized="1"
     inkscape:current-layer="svg23772" />
  <defs
     id="defs23720">
    <linearGradient
       id="bg"
       x1="84"
       y1="64"
       x2="430"
       y2="438"
       gradientUnits="userSpaceOnUse">
      <stop
         offset="0"
         stop-color="#7c86c9"
         id="stop23715" />
      <stop
         offset="1"
         stop-color="#5965b3"
         id="stop23717" />
    </linearGradient>
  </defs>
  <rect
     x="0"
     y="0"
     width="512"
     height="512"
     fill="url(#bg)"
     id="rect23722" />
  <path
     style="opacity:0.15;fill:#fff"
     d="m256 256l-147.8 256h403.8v-256h-122.7-133.3z"
     id="path23724" />
  <path
     style="opacity:0.05;fill:#fff"
     d="m0 0v512h108.2l76.4-132.3 71.4-123.7-68.9-120-0.2 0.3-78.7-136.3h-108.2z"
     id="path23726" />
  <g
     transform="matrix(0.44165489,-0.25498957,0.25498957,0.44165489,254.24712,257.8632)"
     id="g23764">
    <g
       id="g23738"
       transform="translate(4.8034094,-1.4454288)">
      <polygon
         points="294,0 63,-133 0,0 "
         fill="#ffffff"
         opacity="0.93"
         id="polygon23728" />
      <polygon
         points="294,0 310,9 190,279 0,0 "
         fill="#ffffff"
         opacity="0.82"
         id="polygon23730"
         style="opacity:0.666" />
    </g>
    <g
       transform="rotate(120,2.8189642,0.66390986)"
       id="g23750">
      <polygon
         points="294,0 63,-133 0,0 "
         fill="#ffffff"
         opacity="0.93"
         id="polygon23740" />
      <polygon
         points="294,0 310,9 190,279 0,0 "
         fill="#ffffff"
         opacity="0.82"
         id="polygon23742"
         style="opacity:0.666" />
    </g>
    <g
       transform="rotate(-120,1.9844452,-2.1093394)"
       id="g23762"
       style="fill:#ffffff;fill-opacity:1;opacity:1">
      <polygon
         points="294,0 63,-133 0,0 "
         fill="#ffffff"
         opacity="0.93"
         id="polygon23752"
         style="fill:#ffffff;fill-opacity:1" />
      <polygon
         points="294,0 310,9 190,279 0,0 "
         fill="#ffffff"
         opacity="0.82"
         id="polygon23754"
         style="fill:#ffffff;fill-opacity:1;opacity:0.66611044" />
    </g>
  </g>
  <path
     style="baseline-shift:baseline;display:inline;overflow:visible;opacity:0.666;vector-effect:none;fill:#ffffff;enable-background:accumulate;stop-color:#000000;stop-opacity:1"
     d="M 292.6778,342.23032 544.75391,778.8418 564.41406,767.49023 305.76671,319.49695 Z"
     id="path1"
     sodipodi:nodetypes="ccccc" />
</svg>
