<?xml version="1.0" encoding="UTF-8" standalone="no"?>
<svg
   id="Discord-Logo"
   viewBox="0 0 506.576 384.00003"
   version="1.1"
   width="506.57599"
   height="384.00003"
   xmlns="http://www.w3.org/2000/svg"
   xmlns:svg="http://www.w3.org/2000/svg">
  <defs
     id="defs88">
    <style
       id="style86">.cls-1{fill:#fff;}</style>
  </defs>
  <path
     id="Discord-Symbol-White"
     class="cls-1"
     d="m 324.60009,0 c -4.95039,8.7892022 -9.39559,17.881605 -13.43638,27.176007 -38.39001,-5.758401 -77.48723,-5.758401 -115.97804,0 C 191.24567,17.881605 186.69926,8.7892022 181.74927,0 145.68286,6.1628016 110.52565,16.972404 77.187244,32.227209 11.116028,130.12163 -6.7655764,225.49006 2.1248257,319.54528 c 38.6928093,28.59039 82.0332213,50.412 128.2020343,64.3536 10.4056,-13.9416 19.5992,-28.79239 27.4792,-44.24919 -14.952,-5.5564 -29.3988,-12.52722 -43.23921,-20.60922 3.6368,-2.62678 7.17281,-5.3544 10.6076,-7.9812 81.12402,38.18801 175.07845,38.18801 256.30327,0 3.43481,2.82881 6.9708,5.55641 10.6076,7.9812 -13.8404,8.18282 -28.28721,15.05282 -43.34,20.71041 7.88,15.4568 17.0732,30.30761 27.47919,44.24921 46.16762,-13.9416 89.50763,-35.66241 128.20364,-64.25241 C 514.93215,210.63925 486.44414,116.07883 429.16014,32.328408 395.92452,17.073604 360.76731,6.2636016 324.70091,0.20200005 Z M 169.12086,261.65766 c -24.9532,0 -45.66361,-22.62999 -45.66361,-50.61402 0,-27.984 19.90201,-50.7152 45.56281,-50.7152 25.66082,0 46.06761,22.83201 45.66362,50.7152 -0.404,27.88321 -20.10401,50.61402 -45.56282,50.61402 z m 168.30965,0 c -25.0548,0 -45.5628,-22.62999 -45.5628,-50.61402 0,-27.984 19.90198,-50.7152 45.5628,-50.7152 25.6608,0 45.96681,22.83201 45.56241,50.7152 -0.40401,27.88321 -20.10401,50.61402 -45.56241,50.61402 z"
     style="stroke-width:4.00001" />
</svg>
