<?xml version="1.0" encoding="UTF-8" standalone="no"?>
<svg
   id="Discord-Logo"
   viewBox="0 0 384.00002 384.00003"
   version="1.1"
   width="384"
   height="384.00003"
   xml:space="preserve"
   xmlns="http://www.w3.org/2000/svg"
   xmlns:svg="http://www.w3.org/2000/svg"><defs
     id="defs88"><style
       id="style86">.cls-1{fill:#fff;}</style><linearGradient
       id="bg"
       x1="84"
       y1="64"
       x2="430"
       y2="438"
       gradientUnits="userSpaceOnUse"><stop
         offset="0"
         stop-color="#7c86c9"
         id="stop23715" /><stop
         offset="1"
         stop-color="#5965b3"
         id="stop23717" /></linearGradient></defs><g
     transform="matrix(0.51429466,-0.29692816,0.29692816,0.51429466,182.52231,202.07421)"
     id="g23764"><g
       id="g23738"
       transform="translate(4.8034094,-1.4454288)"><polygon
         points="294,0 63,-133 0,0 "
         fill="#ffffff"
         opacity="0.93"
         id="polygon23728" /><polygon
         points="190,279 0,0 294,0 310,9 "
         fill="#ffffff"
         opacity="0.82"
         id="polygon23730"
         style="opacity:0.666" /></g><g
       transform="rotate(120,2.8189642,0.66390986)"
       id="g23750"><polygon
         points="294,0 63,-133 0,0 "
         fill="#ffffff"
         opacity="0.93"
         id="polygon23740" /><polygon
         points="190,279 0,0 294,0 310,9 "
         fill="#ffffff"
         opacity="0.82"
         id="polygon23742"
         style="opacity:0.666" /></g><g
       transform="rotate(-120,1.9844452,-2.1093394)"
       id="g23762"
       style="opacity:1;fill:#ffffff;fill-opacity:1"><polygon
         points="294,0 63,-133 0,0 "
         fill="#ffffff"
         opacity="0.93"
         id="polygon23752"
         style="fill:#ffffff;fill-opacity:1" /><polygon
         points="190,279 0,0 294,0 310,9 "
         fill="#ffffff"
         opacity="0.82"
         id="polygon23754"
         style="opacity:0.66611;fill:#ffffff;fill-opacity:1" /></g></g></svg>
